HIERARCHY
ROOT root
{
  OFFSET 0 93.2929 0
  CHANNELS 6 Xposition Yposition Zposition Zrotation Xrotation Yrotation
  JOINT torso_1
  {
    OFFSET 0 5.07867 -1.15138
    CHANNELS 6 Xposition Yposition Zposition Zrotation Xrotation Yrotation
    JOINT torso_2
    {
      OFFSET 0 5.61661 1.07143
      CHANNELS 6 Xposition Yposition Zposition Zrotation Xrotation Yrotation
      JOINT torso_3
      {
        OFFSET -1.02604e-17 5.98978 0.11501
        CHANNELS 6 Xposition Yposition Zposition Zrotation Xrotation Yrotation
        JOINT torso_4
        {
          OFFSET -1.10457e-17 6.50583 -0.443523
          CHANNELS 6 Xposition Yposition Zposition Zrotation Xrotation Yrotation
          JOINT torso_5
          {
            OFFSET -1.97295e-17 7.60548 -1.50593
            CHANNELS 6 Xposition Yposition Zposition Zrotation Xrotation Yrotation
            JOINT torso_6
            {
              OFFSET -2.53307e-17 9.49737 -0.914492
              CHANNELS 6 Xposition Yposition Zposition Zrotation Xrotation Yrotation
              JOINT torso_7
              {
                OFFSET -2.90401e-17 10.5513 1.57691
                CHANNELS 6 Xposition Yposition Zposition Zrotation Xrotation Yrotation
                JOINT neck_1
                {
                  OFFSET -1.29193e-17 4.78644 0.715339
                  CHANNELS 6 Xposition Yposition Zposition Zrotation Xrotation Yrotation
                  JOINT neck_2
                  {
                    OFFSET -1.8116e-17 4.82109 0.421791
                    CHANNELS 6 Xposition Yposition Zposition Zrotation Xrotation Yrotation
                    JOINT head
                    {
                      OFFSET -2.00958e-17 4.83041 0.765062
                      CHANNELS 6 Xposition Yposition Zposition Zrotation Xrotation Yrotation
                      End Site
                      {
                        OFFSET 0 0.1 0
                      }
                    }
                  }
                }
                JOINT l_shoulder
                {
                  OFFSET 1.23299 -7.60731 7.53374
                  CHANNELS 6 Xposition Yposition Zposition Zrotation Xrotation Yrotation
                  JOINT l_up_arm
                  {
                    OFFSET 12.9547 3.2495 -3.26872
                    CHANNELS 6 Xposition Yposition Zposition Zrotation Xrotation Yrotation
                    JOINT l_low_arm
                    {
                      OFFSET 29.2081 0.0598081 0.137039
                      CHANNELS 6 Xposition Yposition Zposition Zrotation Xrotation Yrotation
                      JOINT l_hand
                      {
                        OFFSET 24.234 0.0496219 0.113701
                        CHANNELS 6 Xposition Yposition Zposition Zrotation Xrotation Yrotation
                        End Site
                        {
                          OFFSET 0.1 0 0
                        }
                      }
                    }
                  }
                }
                JOINT r_shoulder
                {
                  OFFSET -1.23299 -7.60729 7.53365
                  CHANNELS 6 Xposition Yposition Zposition Zrotation Xrotation Yrotation
                  JOINT r_up_arm
                  {
                    OFFSET -12.9547 3.2495 -3.26872
                    CHANNELS 6 Xposition Yposition Zposition Zrotation Xrotation Yrotation
                    JOINT r_low_arm
                    {
                      OFFSET -29.2081 0.0598081 0.137039
                      CHANNELS 6 Xposition Yposition Zposition Zrotation Xrotation Yrotation
                      JOINT r_hand
                      {
                        OFFSET -24.234 0.0496218 0.113702
                        CHANNELS 6 Xposition Yposition Zposition Zrotation Xrotation Yrotation
                        End Site
                        {
                          OFFSET -0.1 0 0
                        }
                      }
                    }
                  }
                }
              }
            }
          }
        }
      }
    }
  }
  JOINT l_up_leg
  {
    OFFSET 9.23673 -4.20556 2.0327
    CHANNELS 6 Xposition Yposition Zposition Zrotation Xrotation Yrotation
    JOINT l_low_leg
    {
      OFFSET -0.852353 -38.7721 -0.655187
      CHANNELS 6 Xposition Yposition Zposition Zrotation Xrotation Yrotation
      JOINT l_foot
      {
        OFFSET -2.32622 -40.4017 -6.04875
        CHANNELS 6 Xposition Yposition Zposition Zrotation Xrotation Yrotation
        JOINT l_toes
        {
          OFFSET 0.779096 -9.8844 12.4959
          CHANNELS 6 Xposition Yposition Zposition Zrotation Xrotation Yrotation
          End Site
          {
            OFFSET 0 0 0.1
          }
        }
      }
    }
  }
  JOINT r_up_leg
  {
    OFFSET -9.23673 -4.20556 2.0327
    CHANNELS 6 Xposition Yposition Zposition Zrotation Xrotation Yrotation
    JOINT r_low_leg
    {
      OFFSET 0.852353 -38.7721 -0.655187
      CHANNELS 6 Xposition Yposition Zposition Zrotation Xrotation Yrotation
      JOINT r_foot
      {
        OFFSET 2.32622 -40.4017 -6.04875
        CHANNELS 6 Xposition Yposition Zposition Zrotation Xrotation Yrotation
        JOINT r_toes
        {
          OFFSET -0.779096 -9.8844 12.4959
          CHANNELS 6 Xposition Yposition Zposition Zrotation Xrotation Yrotation
          End Site
          {
            OFFSET 0 0 0.1
          }
        }
      }
    }
  }
}
MOTION
Frames: 4
Frame Time: 0.016667
3.37765 84.3599 43.5322 -2.06755 11.8253 98.4534 0 5.07867 -1.15138 -0.224389 -5.46684 4.27388 0 5.61661 1.07143 -0.806731 -3.66072 4.79736 -1.02604e-17 5.98978 0.11501 -1.16686 -0.929655 5.12009 -1.10457e-17 6.50583 -0.443523 -1.81666 3.79449 5.3924 -1.97295e-17 7.60548 -1.50593 -0.961539 6.08876 5.18678 -2.53307e-17 9.49737 -0.914492 0.816658 7.01028 5.22241 -2.90401e-17 10.5513 1.57691 0.325575 -0.0247544 -0.102595 -1.29193e-17 4.78644 0.715339 -1.83193 -0.0989367 -16.9701 -1.8116e-17 4.82109 0.421791 9.73792 -10.6301 -7.92365 -2.00958e-17 4.83041 0.765062 19.5121 -19.8662 -11.2102 1.23299 -7.60731 7.53374 18.4983 -14.3399 5.30663 12.9547 3.2495 -3.26872 -95.357 -15.4065 -93.6301 29.2081 0.0598081 0.137039 9.30606 -19.3451 -129.541 24.234 0.0496219 0.113701 10.6933 -8.02037 -6.32961 -1.23299 -7.60729 7.53365 -22.8444 -5.37767 -10.9341 -12.9547 3.2495 -3.26872 43.9048 -15.8505 103.888 -29.2081 0.0598081 0.137039 -10.4651 -17.7377 119.776 -24.234 0.0496218 0.113702 4.48428 26.9486 2.54492 9.23673 -4.20556 2.0327 -29.8937 -24.6964 -51.132 -0.852353 -38.7721 -0.655187 -8.44952 29.1822 1.68056 -2.32622 -40.4017 -6.04875 2.75856 -8.56029 15.7205 0.779096 -9.8844 12.4959 -2.72266e-15 -9.17827e-16 1.35112e-16 -9.23673 -4.20556 2.0327 -11.6896 7.22874 12.8735 0.852353 -38.7721 -0.655187 10.03 33.5816 -2.42662 2.32622 -40.4017 -6.04875 9.2035 -15.3801 -15.3165 -0.779096 -9.8844 12.4959 -2.15116e-15 -4.98514e-16 -1.26741e-14 
3.66544 84.3211 43.0292 -2.25005 11.9452 98.1705 0 5.07867 -1.15138 -0.203219 -5.62984 4.30894 0 5.61661 1.07143 -0.786013 -3.81696 4.85266 -1.02604e-17 5.98978 0.11501 -1.15086 -1.04992 5.18141 -1.10457e-17 6.50583 -0.443523 -1.81427 3.73947 5.46074 -1.97295e-17 7.60548 -1.50593 -0.953687 6.0812 5.24715 -2.53307e-17 9.49737 -0.914492 0.841377 7.03387 5.29584 -2.90401e-17 10.5513 1.57691 0.327003 -0.0165357 -0.0823096 -1.29193e-17 4.78644 0.715339 -1.84232 0.0702511 -17.4361 -1.8116e-17 4.82109 0.421791 9.71847 -10.4683 -8.15136 -2.00958e-17 4.83041 0.765062 19.7397 -19.7021 -11.1836 1.23299 -7.60731 7.53374 18.3228 -14.3088 5.47946 12.9547 3.2495 -3.26872 -94.8011 -14.9047 -93.1154 29.2081 0.0598081 0.137039 9.28282 -19.3718 -129.716 24.234 0.0496219 0.113701 10.9373 -7.89727 -6.65548 -1.23299 -7.60729 7.53365 -22.7834 -5.30653 -10.9644 -12.9547 3.2495 -3.26872 43.5792 -15.2971 104.015 -29.2081 0.0598081 0.137039 -10.4584 -17.7491 119.841 -24.234 0.0496218 0.113702 5.04513 27.2395 2.25624 9.23673 -4.20556 2.0327 -30.3601 -24.955 -50.9752 -0.852353 -38.7721 -0.655187 -8.5355 29.432 1.71824 -2.32622 -40.4017 -6.04875 2.89727 -8.3572 15.6785 0.779096 -9.8844 12.4959 -1.58671e-15 -8.7057e-16 8.78552e-17 -9.23673 -4.20556 2.0327 -12.2468 6.82484 12.9855 0.852353 -38.7721 -0.655187 10.1891 34.0015 -2.50763 2.32622 -40.4017 -6.04875 9.1802 -15.2356 -15.3242 -0.779096 -9.8844 12.4959 -1.40568e-15 -5.33569e-16 -1.27091e-14 
3.91567 84.3168 42.4361 -2.05511 12.1123 97.9176 0 5.07867 -1.15138 -0.113323 -5.77598 4.3381 0 5.61661 1.07143 -0.704352 -3.94152 4.90824 -1.02604e-17 5.98978 0.11501 -1.08796 -1.13608 5.24242 -1.10457e-17 6.50583 -0.443523 -1.77832 3.72463 5.52791 -1.97295e-17 7.60548 -1.50593 -0.931875 6.12511 5.30557 -2.53307e-17 9.49737 -0.914492 0.861595 7.11329 5.36677 -2.90401e-17 10.5513 1.57691 0.318086 -0.0118451 -0.0591393 -1.29193e-17 4.78644 0.715339 -1.89606 0.123411 -17.9075 -1.8116e-17 4.82109 0.421791 9.66153 -10.3576 -8.37969 -2.00958e-17 4.83041 0.765062 19.8541 -19.2793 -11.1922 1.23299 -7.60731 7.53374 18.1105 -14.3216 5.56656 12.9547 3.2495 -3.26872 -94.3323 -14.3468 -92.553 29.2081 0.0598081 0.137039 9.25541 -19.4032 -129.921 24.234 0.0496219 0.113701 11.038 -7.60278 -6.84347 -1.23299 -7.60729 7.53365 -22.7201 -5.27364 -10.89 -12.9547 3.2495 -3.26872 43.0407 -14.9414 103.993 -29.2081 0.0598081 0.137039 -10.4659 -17.7364 119.769 -24.234 0.0496218 0.113702 5.39161 27.5609 1.97592 9.23673 -4.20556 2.0327 -30.7779 -24.796 -50.8169 -0.852353 -38.7721 -0.655187 -8.56377 29.5139 1.73071 -2.32622 -40.4017 -6.04875 2.7322 -8.04777 15.6165 0.779096 -9.8844 12.4959 -2.34638e-15 -8.94088e-16 1.11373e-16 -9.23673 -4.20556 2.0327 -12.7406 6.92511 13.2792 0.852353 -38.7721 -0.655187 10.2683 34.2093 -2.5484 2.32622 -40.4017 -6.04875 9.25056 -14.858 -15.3729 -0.779096 -9.8844 12.4959 -3.73434e-15 -4.24413e-16 -1.26122e-14 
4.18947 84.3583 41.8558 -1.68737 12.2936 97.7874 0 5.07867 -1.15138 0.00624703 -5.90926 4.36136 0 5.61661 1.07143 -0.596445 -4.04337 4.95741 -1.02604e-17 5.98978 0.11501 -1.0051 -1.19737 5.29618 -1.10457e-17 6.50583 -0.443523 -1.72757 3.73568 5.58644 -1.97295e-17 7.60548 -1.50593 -0.905587 6.19975 5.35703 -2.53307e-17 9.49737 -0.914492 0.876288 7.22569 5.43109 -2.90401e-17 10.5513 1.57691 0.30255 -0.0095781 -0.0344282 -1.29193e-17 4.78644 0.715339 -1.93506 0.160888 -18.2886 -1.8116e-17 4.82109 0.421791 9.58987 -10.2723 -8.56321 -2.00958e-17 4.83041 0.765062 19.8812 -18.9079 -11.2691 1.23299 -7.60731 7.53374 17.8555 -14.3594 5.56152 12.9547 3.2495 -3.26872 -94.0211 -13.7623 -91.9383 29.2081 0.0598081 0.137039 9.21902 -19.4444 -130.192 24.234 0.0496219 0.113701 11.0357 -7.2801 -7.00419 -1.23299 -7.60729 7.53365 -22.6232 -5.27038 -10.74 -12.9547 3.2495 -3.26872 42.337 -14.6331 103.816 -29.2081 0.0598081 0.137039 -10.4804 -17.7118 119.628 -24.234 0.0496218 0.113702 5.66062 28.0371 1.7712 9.23673 -4.20556 2.0327 -31.0943 -24.3196 -50.6126 -0.852353 -38.7721 -0.655187 -8.51948 29.3856 1.71119 -2.32622 -40.4017 -6.04875 2.46768 -7.68925 15.5468 0.779096 -9.8844 12.4959 3.72753e-16 -7.8471e-16 1.99544e-18 -9.23673 -4.20556 2.0327 -13.1506 7.4273 13.5529 0.852353 -38.7721 -0.655187 10.2267 34.1004 -2.52697 2.32622 -40.4017 -6.04875 9.33766 -14.3128 -15.4549 -0.779096 -9.8844 12.4959 5.1831e-16 -6.17655e-16 -1.27934e-14 
